<?xml version="1.0" encoding="UTF-8"?>
<!DOCTYPE svg PUBLIC "-//W3C//DTD SVG 1.1//EN" "http://www.w3.org/Graphics/SVG/1.1/DTD/svg11.dtd">
<!-- Creator: CorelDRAW X7 -->
<svg xmlns="http://www.w3.org/2000/svg" xml:space="preserve" width="162.56mm" height="91.44mm" version="1.1" style="shape-rendering:geometricPrecision; text-rendering:geometricPrecision; image-rendering:optimizeQuality; fill-rule:evenodd; clip-rule:evenodd"
viewBox="0 0 16256 9144"
 xmlns:xlink="http://www.w3.org/1999/xlink">
 <defs>
  <style type="text/css">
   <![CDATA[
    .str12 {stroke:#848688;stroke-width:33.87}
    .str9 {stroke:#848688;stroke-width:33.87}
    .str10 {stroke:#727376;stroke-width:33.87}
    .str0 {stroke:#373435;stroke-width:33.87}
    .str1 {stroke:#7D372F;stroke-width:33.87}
    .str11 {stroke:#7D372F;stroke-width:33.87}
    .str2 {stroke:#F37C82;stroke-width:16.93}
    .str7 {stroke:#CF5A38;stroke-width:16.93}
    .str6 {stroke:#CEC73B;stroke-width:16.93}
    .str3 {stroke:#342C2B;stroke-width:16.93}
    .str5 {stroke:#0C88BB;stroke-width:16.93}
    .str4 {stroke:#0C854D;stroke-width:16.93}
    .str8 {stroke:#373435;stroke-width:20}
    .fil3 {fill:none}
    .fil12 {fill:#A9ABAE}
    .fil13 {fill:#848688}
    .fil0 {fill:#373435}
    .fil10 {fill:#FFF212}
    .fil5 {fill:#F7ADAF}
    .fil11 {fill:#F58634}
    .fil4 {fill:#E46545}
    .fil8 {fill:#E46545}
    .fil14 {fill:#A55C37}
    .fil1 {fill:#9C4A35}
    .fil2 {fill:#7D372F}
    .fil15 {fill:#7D372F}
    .fil6 {fill:#4D2F2B}
    .fil9 {fill:#00AFEF}
    .fil7 {fill:#00A859}
   ]]>
  </style>
   <clipPath id="id0">
    <path d="M-7536 4528c-14,11 -31,25 -45,41 -14,16 -26,34 -36,54 -10,20 -18,42 -22,68 -4,25 -5,54 -2,81 3,27 8,51 15,71 7,20 15,34 30,51 15,17 36,36 48,50 13,14 17,22 52,30 36,8 103,14 139,6 36,-9 41,-33 54,-45 13,-12 35,-11 55,-32 20,-21 39,-64 50,-88 11,-23 15,-27 23,-55 9,-28 23,-79 22,-118 -1,-38 -17,-64 -35,-84 -18,-20 -37,-34 -55,-45 -18,-12 -35,-20 -61,-26 -25,-6 -59,-10 -84,-11 -24,0 -39,2 -57,7 -17,5 -36,13 -51,20 -15,8 -26,15 -40,25z"/>
   </clipPath>
   <clipPath id="id1">
    <path d="M-7200 4567c16,7 29,16 39,25 10,8 18,16 27,27 8,11 17,24 26,40 8,15 15,32 20,50 5,19 9,38 10,59 1,20 0,41 -3,62 -4,21 -9,41 -16,57 -6,17 -13,31 -30,53 -17,21 -44,50 -70,72 -26,22 -50,36 -70,43 -20,8 -35,9 -51,10 -15,0 -30,1 -49,-1 -18,-2 -39,-7 -59,-14 -20,-7 -38,-16 -54,-27 -16,-11 -30,-23 -40,-33 -9,-9 -15,-16 -21,-24 -6,-8 -13,-17 -20,-30 -6,-12 -12,-28 -13,-44 0,-16 4,-33 16,-39 12,-6 31,-1 51,4 21,5 43,10 64,10 22,0 43,-5 66,-17 23,-12 49,-31 67,-64 18,-32 28,-79 30,-111 3,-33 -2,-52 0,-70 3,-19 13,-37 28,-44 15,-6 36,-1 52,6z"/>
   </clipPath>
   <clipPath id="id2">
    <path d="M-6688 5520c-85,-86 -245,-250 -339,-345 -94,-95 -123,-121 -137,-142 -15,-20 -16,-34 -11,-53 5,-19 15,-43 24,-58 10,-14 19,-19 31,-23 13,-3 28,-4 42,-2 13,2 25,7 42,17 17,9 40,22 148,87 107,64 299,179 399,241 100,62 110,70 118,85 9,14 17,35 14,73 -3,37 -17,91 -42,132 -26,41 -64,69 -97,82 -32,14 -60,12 -78,7 -19,-5 -29,-15 -114,-101z"/>
   </clipPath>
 </defs>
 <g id="Capa_x0020_1">
  <metadata id="CorelCorpID_0Corel-Layer"/>
  <path class="fil0 str0" d="M-7223 4567c17,5 34,11 46,23 12,12 18,29 21,44 4,14 5,26 2,53 -4,28 -12,72 -30,111 -18,39 -45,73 -76,103 -31,29 -68,54 -99,71 -31,17 -58,27 -77,31 -20,4 -32,2 -43,-1 -11,-3 -20,-8 -30,-17 -10,-10 -21,-23 -28,-42 -7,-19 -10,-44 -2,-79 8,-34 27,-79 52,-119 24,-40 55,-75 83,-102 29,-28 56,-47 78,-59 22,-13 38,-19 54,-21 17,-2 32,0 49,4z"/>
  <path class="fil1" d="M-7536 4528c-14,11 -31,25 -45,41 -14,16 -26,34 -36,54 -10,20 -18,42 -22,68 -4,25 -5,54 -2,81 3,27 8,51 15,71 7,20 15,34 30,51 15,17 36,36 48,50 13,14 17,22 52,30 36,8 103,14 139,6 36,-9 41,-33 54,-45 13,-12 35,-11 55,-32 20,-21 39,-64 50,-88 11,-23 15,-27 23,-55 9,-28 23,-79 22,-118 -1,-38 -17,-64 -35,-84 -18,-20 -37,-34 -55,-45 -18,-12 -35,-20 -61,-26 -25,-6 -59,-10 -84,-11 -24,0 -39,2 -57,7 -17,5 -36,13 -51,20 -15,8 -26,15 -40,25z"/>
  <g style="clip-path:url(#id0)">
   <g id="_2160864616224">
    <path id="1" class="fil2" d="M-7565 4997c8,-1 22,2 36,-4 14,-6 28,-21 36,-33 7,-12 9,-22 18,-28 8,-5 22,-6 36,-11 14,-5 27,-14 35,-23 7,-10 9,-20 14,-28 6,-9 15,-16 27,-21 13,-5 30,-8 43,-17 13,-8 22,-22 27,-31 4,-8 4,-11 7,-15 3,-5 10,-11 22,-15 11,-4 28,-6 41,-10 14,-4 24,-9 27,-16 4,-7 1,-16 8,-25 7,-9 23,-18 35,-22 13,-4 20,-4 29,-9 9,-5 20,-16 25,-26 5,-11 5,-21 12,-31 7,-10 22,-19 18,-23 -4,-4 -26,-2 -40,7 -13,8 -18,23 -20,32 -2,8 -2,10 -9,14 -6,4 -20,11 -29,15 -10,4 -14,6 -18,10 -5,4 -9,11 -12,18 -4,7 -7,13 -10,18 -4,5 -7,8 -15,11 -7,2 -18,3 -31,5 -13,2 -27,4 -38,10 -11,6 -18,14 -22,22 -3,8 -2,16 -3,24 -2,7 -4,13 -11,18 -7,4 -18,8 -27,10 -10,2 -18,3 -27,4 -10,2 -21,5 -29,11 -7,7 -10,17 -13,27 -2,10 -4,19 -6,25 -2,6 -4,10 -9,12 -5,3 -14,4 -23,4 -10,-1 -21,-4 -30,-3 -8,2 -15,8 -19,15 -4,7 -5,14 -6,21 -2,6 -4,12 -7,17 -3,6 -7,11 -12,15 -5,4 -12,5 -21,7 -9,2 -19,4 -25,6 -6,1 -9,3 -8,6 2,3 8,8 11,9 4,1 5,-2 13,-2z"/>
    <path class="fil2" d="M-7542 5078c8,-1 22,2 36,-4 14,-7 28,-21 35,-33 8,-12 10,-22 18,-28 8,-5 23,-6 37,-11 14,-5 27,-14 34,-24 8,-9 9,-19 15,-28 5,-8 14,-15 27,-20 13,-5 29,-8 42,-17 13,-9 22,-23 27,-31 5,-8 4,-11 8,-15 3,-5 10,-11 21,-15 12,-4 28,-6 42,-10 13,-4 23,-9 27,-16 4,-7 0,-16 7,-25 7,-9 24,-18 36,-23 12,-4 20,-3 29,-8 9,-5 19,-16 24,-26 5,-11 5,-21 12,-31 8,-10 22,-20 18,-23 -3,-4 -26,-2 -39,6 -14,9 -18,24 -21,32 -2,9 -1,10 -8,15 -7,4 -21,11 -30,15 -9,4 -14,6 -18,10 -4,4 -8,11 -12,18 -3,6 -6,13 -10,18 -3,4 -7,8 -14,11 -7,2 -18,3 -31,5 -13,1 -28,4 -39,10 -11,6 -18,14 -21,22 -3,8 -3,16 -4,23 -1,8 -4,14 -11,18 -7,5 -17,9 -27,11 -9,2 -17,2 -27,4 -9,2 -21,5 -28,11 -7,7 -11,17 -13,27 -3,10 -5,18 -6,25 -2,6 -4,9 -10,12 -5,3 -13,4 -23,4 -9,-1 -20,-4 -29,-3 -9,2 -16,8 -19,15 -4,7 -5,14 -7,21 -1,6 -4,12 -7,17 -3,6 -6,11 -11,15 -6,4 -13,5 -21,7 -9,2 -19,4 -25,6 -7,1 -10,3 -8,6 1,3 7,8 11,9 3,1 5,-2 13,-2z"/>
    <path class="fil2" d="M-7580 4916c8,0 22,2 36,-4 14,-6 28,-20 36,-32 7,-12 9,-22 18,-28 8,-5 22,-6 36,-11 14,-5 27,-14 35,-24 7,-9 9,-19 14,-28 6,-8 15,-15 27,-20 13,-5 30,-9 43,-17 13,-9 22,-23 26,-31 5,-8 5,-11 8,-15 3,-5 10,-11 22,-15 11,-4 28,-6 41,-10 14,-4 24,-9 27,-16 4,-7 1,-16 8,-25 7,-9 23,-19 35,-23 13,-4 20,-3 29,-8 9,-5 20,-16 25,-27 5,-10 5,-20 12,-30 7,-10 22,-20 18,-23 -4,-4 -26,-2 -40,6 -13,9 -18,24 -20,32 -2,9 -2,10 -9,15 -6,4 -20,11 -29,15 -10,4 -14,6 -18,10 -5,4 -9,11 -12,18 -4,6 -7,12 -10,17 -4,5 -7,9 -15,12 -7,2 -18,3 -31,4 -13,2 -27,5 -38,11 -11,5 -18,14 -22,22 -3,8 -2,16 -3,23 -2,8 -4,14 -11,18 -7,5 -18,9 -27,11 -10,2 -18,2 -27,4 -10,2 -21,5 -29,11 -7,7 -10,17 -13,27 -2,9 -4,18 -6,25 -2,6 -4,9 -9,12 -5,2 -14,4 -23,3 -10,0 -21,-3 -30,-2 -8,2 -15,8 -19,15 -4,7 -5,14 -6,21 -2,6 -4,12 -7,17 -3,6 -7,11 -12,15 -5,4 -12,5 -21,7 -9,2 -19,4 -25,6 -6,1 -9,2 -8,6 2,3 8,8 11,9 4,1 5,-2 13,-3z"/>
    <path class="fil2" d="M-7690 4899c8,-1 22,2 36,-5 14,-6 28,-20 36,-32 7,-12 9,-22 17,-28 9,-5 23,-6 37,-11 14,-5 27,-14 34,-24 8,-9 10,-19 15,-28 5,-8 14,-15 27,-20 13,-5 30,-8 43,-17 13,-9 22,-22 26,-31 5,-8 5,-11 8,-15 3,-5 10,-11 22,-15 11,-4 28,-6 41,-10 13,-4 24,-9 27,-16 4,-7 1,-16 8,-25 6,-9 23,-18 35,-23 13,-4 20,-3 29,-8 9,-5 19,-16 25,-26 5,-11 4,-21 12,-31 7,-10 22,-20 18,-23 -4,-4 -27,-2 -40,7 -13,8 -18,23 -20,31 -2,9 -2,10 -9,15 -7,4 -20,11 -29,15 -10,4 -14,6 -18,10 -5,4 -9,11 -12,18 -4,6 -7,13 -10,18 -4,5 -7,8 -15,11 -7,2 -18,3 -31,5 -13,1 -28,4 -38,10 -11,6 -18,14 -22,22 -3,8 -2,16 -3,24 -2,7 -5,13 -11,17 -7,5 -18,9 -27,11 -10,2 -18,2 -28,4 -9,2 -20,5 -28,11 -7,7 -10,17 -13,27 -3,10 -4,18 -6,25 -2,6 -4,9 -9,12 -5,3 -14,4 -23,4 -10,-1 -21,-4 -30,-3 -9,2 -15,8 -19,15 -4,7 -5,14 -7,21 -1,6 -3,12 -6,17 -3,6 -7,11 -12,15 -5,4 -12,5 -21,7 -9,2 -19,4 -25,6 -6,1 -9,3 -8,6 2,3 8,8 11,9 4,1 5,-2 13,-2z"/>
   </g>
  </g>
  <path class="fil3 str1" d="M-7536 4528c-14,11 -31,25 -45,41 -14,16 -26,34 -36,54 -10,20 -18,42 -22,68 -4,25 -5,54 -2,81 3,27 8,51 15,71 7,20 15,34 30,51 15,17 36,36 48,50 13,14 17,22 52,30 36,8 103,14 139,6 36,-9 41,-33 54,-45 13,-12 35,-11 55,-32 20,-21 39,-64 50,-88 11,-23 15,-27 23,-55 9,-28 23,-79 22,-118 -1,-38 -17,-64 -35,-84 -18,-20 -37,-34 -55,-45 -18,-12 -35,-20 -61,-26 -25,-6 -59,-10 -84,-11 -24,0 -39,2 -57,7 -17,5 -36,13 -51,20 -15,8 -26,15 -40,25z"/>
  <path class="fil4" d="M-7371 4502c-14,-1 -28,-2 -40,0 -13,2 -24,8 -30,13 -6,5 -7,9 -2,12 5,3 16,5 29,4 13,0 29,-2 42,0 14,2 26,7 37,9 11,1 20,-2 21,-10 1,-7 -6,-18 -17,-24 -11,-5 -26,-4 -40,-4z"/>
  <rect class="fil5 str2" transform="matrix(0.0836253 -0.254435 0.254435 0.0836253 -7345.95 4502.82)" width="185.21" height="62.84" rx="31" ry="31"/>
  <rect class="fil5 str2" transform="matrix(0.0836253 -0.254435 0.254435 0.0836253 -7461.86 4899.66)" width="185.21" height="62.84" rx="31" ry="31"/>
  <rect class="fil6 str3" transform="matrix(-0.266343 0.0281356 -0.0281356 -0.266343 -7609.91 4813.56)" width="185.21" height="62.84" rx="31" ry="31"/>
  <rect class="fil6 str3" transform="matrix(0.23349 -0.131197 -0.131197 -0.23349 -7174.52 4635.26)" width="185.21" height="62.84" rx="31" ry="31"/>
  <rect class="fil6 str3" transform="matrix(-0.0462119 -0.263808 0.263808 -0.0462119 -7474.88 4518.1)" width="185.21" height="62.84" rx="31" ry="31"/>
  <rect class="fil5 str2" transform="matrix(-0.22826 0.140099 -0.140099 -0.22826 -7473.76 4640.85)" width="185.21" height="62.84" rx="31" ry="31"/>
  <circle class="fil7 str4" transform="matrix(0.211911 -0.16378 0.16378 0.211911 -7409.36 4561.25)" r="71"/>
  <circle class="fil7 str4" transform="matrix(0.211911 -0.16378 0.16378 0.211911 -7515.9 4757.05)" r="71"/>
  <path class="fil8" d="M-7488 4555c-9,7 -23,17 -38,31 -16,14 -33,33 -45,55 -12,23 -18,48 -20,72 -1,23 2,44 3,58 1,14 1,20 -1,23 -3,3 -8,3 -12,1 -5,-3 -9,-7 -11,-27 -2,-20 -2,-55 1,-80 3,-25 10,-40 18,-57 9,-16 20,-34 36,-50 16,-17 36,-31 49,-40 13,-8 19,-11 25,-13 6,-2 13,-3 16,0 3,2 2,8 -1,13 -4,4 -10,7 -20,14z"/>
  <circle class="fil9 str5" transform="matrix(0.211911 -0.16378 0.16378 0.211911 -7260.47 4601.8)" r="71"/>
  <circle class="fil9 str5" transform="matrix(0.211911 -0.16378 0.16378 0.211911 -7583.15 4569.43)" r="71"/>
  <path class="fil10 str6" d="M-7340 4698c0,-2 1,-6 2,-9 1,-2 2,-5 3,-7 0,-2 0,-4 -1,-5 -1,-1 -3,-1 -4,0 -2,1 -4,2 -7,4 -2,2 -6,4 -9,6 -3,-2 -5,-4 -8,-5 -3,-2 -5,-4 -6,-4 -2,-1 -4,-1 -5,0 -1,1 -1,2 -1,4 1,3 2,5 3,8 1,3 2,6 3,8 -3,3 -6,5 -8,7 -3,2 -5,4 -6,6 -1,1 -1,3 -1,4 1,1 2,2 4,2 2,0 5,0 8,0 3,-1 6,-2 8,-2 0,0 0,0 0,0 0,0 0,0 0,1 1,2 2,5 3,8 1,3 2,6 3,8 1,1 2,2 3,2 1,1 3,0 4,-2 1,-1 1,-4 2,-7 1,-3 2,-6 4,-10 3,0 7,0 10,-1 3,0 6,0 8,-1 1,0 3,-1 3,-2 0,-1 -1,-3 -2,-4 -2,-2 -4,-3 -7,-5 -2,-2 -5,-3 -6,-4z"/>
  <path class="fil11 str7" d="M-7622 4688c0,-2 1,-5 2,-8 1,-3 2,-6 3,-8 0,-2 0,-4 -1,-4 -1,-1 -3,-1 -5,-1 -1,1 -3,2 -6,4 -3,2 -6,4 -9,6 -3,-2 -5,-3 -8,-5 -3,-2 -5,-3 -6,-4 -2,-1 -4,-1 -5,0 -1,1 -1,3 -1,5 1,2 2,5 3,7 1,3 2,6 3,9 -3,2 -6,5 -9,7 -2,2 -4,3 -5,5 -1,1 -1,3 -1,4 1,1 2,2 4,2 2,0 5,0 8,0 3,0 6,-2 8,-2 0,0 0,0 0,0 0,0 0,0 0,2 1,1 2,4 3,7 1,3 1,6 3,8 1,2 2,3 3,3 1,0 2,-1 3,-3 1,-1 2,-4 3,-7 1,-3 2,-6 3,-10 4,0 8,0 11,0 3,-1 6,-1 8,-1 1,-1 3,-2 3,-3 0,-1 -1,-3 -2,-4 -2,-2 -4,-3 -7,-5 -2,-1 -5,-3 -6,-4z"/>
  <path class="fil12" d="M-7200 4567c16,7 29,16 39,25 10,8 18,16 27,27 8,11 17,24 26,40 8,15 15,32 20,50 5,19 9,38 10,59 1,20 0,41 -3,62 -4,21 -9,41 -16,57 -6,17 -13,31 -30,53 -17,21 -44,50 -70,72 -26,22 -50,36 -70,43 -20,8 -35,9 -51,10 -15,0 -30,1 -49,-1 -18,-2 -39,-7 -59,-14 -20,-7 -38,-16 -54,-27 -16,-11 -30,-23 -40,-33 -9,-9 -15,-16 -21,-24 -6,-8 -13,-17 -20,-30 -6,-12 -12,-28 -13,-44 0,-16 4,-33 16,-39 12,-6 31,-1 51,4 21,5 43,10 64,10 22,0 43,-5 66,-17 23,-12 49,-31 67,-64 18,-32 28,-79 30,-111 3,-33 -2,-52 0,-70 3,-19 13,-37 28,-44 15,-6 36,-1 52,6z"/>
  <g style="clip-path:url(#id1)">
   <g id="_2161030912496">
    <path id="1" class="fil3 str8" d="M-8077 4523c23,39 46,78 69,117"/>
   </g>
  </g>
  <path class="fil3 str9" d="M-7200 4567c16,7 29,16 39,25 10,8 18,16 27,27 8,11 17,24 26,40 8,15 15,32 20,50 5,19 9,38 10,59 1,20 0,41 -3,62 -4,21 -9,41 -16,57 -6,17 -13,31 -30,53 -17,21 -44,50 -70,72 -26,22 -50,36 -70,43 -20,8 -35,9 -51,10 -15,0 -30,1 -49,-1 -18,-2 -39,-7 -59,-14 -20,-7 -38,-16 -54,-27 -16,-11 -30,-23 -40,-33 -9,-9 -15,-16 -21,-24 -6,-8 -13,-17 -20,-30 -6,-12 -12,-28 -13,-44 0,-16 4,-33 16,-39 12,-6 31,-1 51,4 21,5 43,10 64,10 22,0 43,-5 66,-17 23,-12 49,-31 67,-64 18,-32 28,-79 30,-111 3,-33 -2,-52 0,-70 3,-19 13,-37 28,-44 15,-6 36,-1 52,6z"/>
  <path class="fil12 str9" d="M-7140 4809c15,-9 39,-25 50,-28 12,-3 12,8 40,10 28,3 84,-2 134,-4 49,-3 92,-4 114,-3 23,0 27,1 23,6 -3,5 -13,14 -47,34 -34,20 -91,52 -133,76 -42,23 -68,39 -86,45 -17,6 -26,2 -42,-11 -16,-13 -39,-37 -56,-51 -17,-13 -29,-18 -42,-22 -12,-4 -25,-6 -30,-10 -4,-4 1,-8 10,-14 8,-5 21,-11 31,-15 10,-4 18,-5 34,-13z"/>
  <path class="fil13 str10" d="M-7149 5078c-20,-4 -53,-15 -74,-33 -20,-17 -29,-42 -34,-62 -5,-19 -6,-35 0,-58 5,-23 18,-53 34,-73 16,-20 35,-29 52,-33 16,-4 30,-3 45,1 16,4 34,11 49,22 16,11 28,26 39,40 10,14 18,27 22,34 5,7 5,7 -8,6 -13,-1 -39,-3 -58,-1 -19,3 -30,10 -39,18 -9,8 -17,17 -22,32 -5,14 -8,35 -6,51 2,15 9,25 15,34 6,8 12,14 11,19 0,4 -7,7 -26,3z"/>
  <path class="fil14" d="M-6688 5520c-85,-86 -245,-250 -339,-345 -94,-95 -123,-121 -137,-142 -15,-20 -16,-34 -11,-53 5,-19 15,-43 24,-58 10,-14 19,-19 31,-23 13,-3 28,-4 42,-2 13,2 25,7 42,17 17,9 40,22 148,87 107,64 299,179 399,241 100,62 110,70 118,85 9,14 17,35 14,73 -3,37 -17,91 -42,132 -26,41 -64,69 -97,82 -32,14 -60,12 -78,7 -19,-5 -29,-15 -114,-101z"/>
  <g style="clip-path:url(#id2)">
   <g id="_2161030909264">
    <path id="1" class="fil15" d="M-6380 5310c-15,1 -31,-4 -47,-2 -16,1 -32,8 -48,22 -17,13 -33,34 -41,44 -7,10 -6,10 -5,19 1,9 2,26 3,35 0,8 0,8 -6,9 -6,1 -18,3 -24,4 -6,1 -7,1 -12,14 -4,13 -13,38 -19,60 -5,22 -7,39 -10,54 -3,15 -6,27 -5,34 0,8 3,10 12,24 9,13 23,38 55,47 32,9 82,2 125,-23 43,-24 79,-66 101,-120 22,-53 31,-118 31,-162 -1,-45 -10,-69 -22,-78 -12,-8 -26,-1 -41,5 -15,7 -31,13 -47,14z"/>
    <path class="fil15" d="M-6539 5382c-36,-20 -97,-48 -127,-63 -30,-14 -30,-14 -2,13 28,27 83,80 118,110 35,31 49,37 61,35 11,-3 20,-15 21,-25 1,-10 -5,-18 -14,-28 -9,-9 -21,-21 -57,-42z"/>
   </g>
  </g>
  <path class="fil3 str11" d="M-6688 5520c-85,-86 -245,-250 -339,-345 -94,-95 -123,-121 -137,-142 -15,-20 -16,-34 -11,-53 5,-19 15,-43 24,-58 10,-14 19,-19 31,-23 13,-3 28,-4 42,-2 13,2 25,7 42,17 17,9 40,22 148,87 107,64 299,179 399,241 100,62 110,70 118,85 9,14 17,35 14,73 -3,37 -17,91 -42,132 -26,41 -64,69 -97,82 -32,14 -60,12 -78,7 -19,-5 -29,-15 -114,-101z"/>
  <path class="fil12 str12" d="M-6760 4747c6,3 12,7 15,13 4,5 4,13 5,18 0,6 -1,11 -4,21 -4,10 -11,26 -21,40 -10,13 -24,24 -38,32 -15,9 -31,15 -44,19 -13,4 -24,5 -32,5 -8,0 -13,-2 -16,-4 -4,-2 -7,-4 -10,-9 -3,-4 -7,-10 -8,-18 -1,-8 0,-18 6,-30 6,-13 18,-28 30,-41 13,-14 28,-24 41,-32 13,-8 25,-13 35,-16 9,-3 16,-4 22,-4 7,1 13,3 19,6z"/>
 </g>
</svg>
